<?xml version="1.0" encoding="UTF-8" standalone="no"?>
<svg
   xmlns:dc="http://purl.org/dc/elements/1.1/"
   xmlns:cc="http://creativecommons.org/ns#"
   xmlns:rdf="http://www.w3.org/1999/02/22-rdf-syntax-ns#"
   xmlns:svg="http://www.w3.org/2000/svg"
   xmlns="http://www.w3.org/2000/svg"
   xmlns:sodipodi="http://sodipodi.sourceforge.net/DTD/sodipodi-0.dtd"
   xmlns:inkscape="http://www.inkscape.org/namespaces/inkscape"
   version="1.1"
   id="svg2365"
   width="126.66667"
   height="250.66667"
   viewBox="0 0 126.66667 250.66667"
   sodipodi:docname="blackQueen.svg"
   inkscape:version="1.0.1 (3bc2e813f5, 2020-09-07)">
  <metadata
     id="metadata2371">
    <rdf:RDF>
      <cc:Work
         rdf:about="">
        <dc:format>image/svg+xml</dc:format>
        <dc:type
           rdf:resource="http://purl.org/dc/dcmitype/StillImage" />
        <dc:title></dc:title>
      </cc:Work>
    </rdf:RDF>
  </metadata>
  <defs
     id="defs2369">
    <inkscape:path-effect
       effect="mirror_symmetry"
       start_point="68.79665,32.136447"
       end_point="68.79665,236.0031"
       center_point="68.79665,134.06977"
       id="path-effect2381"
       is_visible="true"
       lpeversion="1"
       mode="free"
       discard_orig_path="false"
       fuse_paths="false"
       oposite_fuse="false"
       split_items="false" />
    <inkscape:path-effect
       effect="fillet_chamfer"
       id="path-effect2379"
       is_visible="true"
       lpeversion="1"
       satellites_param="F,0,0,1,0,0,0,1 @ F,0,0,1,0,0,0,1 @ F,0,0,1,0,0,0,1 @ F,0,0,1,0,0,0,1 @ F,0,0,1,0,0,0,1 @ F,0,0,1,0,0,0,1 @ F,0,0,1,0,0,0,1 @ F,0,0,1,0,0,0,1 @ F,0,0,1,0,0,0,1 @ F,0,0,1,0,0.64643545,0,1 @ F,0,0,1,0,0,0,1 @ F,0,0,1,0,0.85316017,0,1 @ F,0,0,1,0,0.49868123,0,1 @ F,0,0,1,0,0,0,1 @ F,0,0,1,0,0.42587978,0,1 @ F,0,0,1,0,0.68431132,0,1 @ F,0,0,1,0,0,0,1 @ F,0,0,1,0,0,0,1 @ F,0,0,1,0,0.50903969,0,1 @ F,0,0,1,0,0,0,1 @ F,0,0,1,0,0,0,1 @ F,0,0,1,0,0,0,1 @ F,0,0,1,0,0,0,1 @ F,0,0,1,0,0,0,1 @ F,0,0,1,0,0.62672695,0,1 @ F,0,0,1,0,0,0,1 @ F,0,0,1,0,0.72873477,0,1 @ F,0,0,1,0,0,0,1 @ F,0,0,1,0,0.60272761,0,1 @ F,0,0,1,0,0,0,1 @ F,0,0,1,0,0,0,1 @ F,0,0,1,0,0,0,1 @ F,0,0,1,0,0,0,1 @ F,0,0,1,0,0,0,1 @ F,0,0,1,0,0,0,1 @ F,0,0,1,0,0,0,1 @ F,0,0,1,0,0,0,1 @ F,0,0,1,0,0,0,1 @ F,0,0,1,0,0,0,1 @ F,0,0,1,0,0,0,1 @ F,0,0,1,0,0,0,1 @ F,0,0,1,0,0,0,1 @ F,0,0,1,0,0,0,1 @ F,0,0,1,0,0,0,1 @ F,0,0,1,0,0,0,1 @ F,0,0,1,0,0,0,1 @ F,0,0,1,0,0,0,1 @ F,0,0,1,0,0,0,1 @ F,0,0,1,0,0,0,1 @ F,0,0,1,0,0,0,1 @ F,0,0,1,0,0.87253963,0,1 @ F,0,0,1,0,0,0,1 @ F,0,0,1,0,0,0,1 @ F,0,0,1,0,0.92213333,0,1 @ F,0,0,1,0,0,0,1 @ F,0,0,1,0,0,0,1 @ F,0,0,1,0,0,0,1 @ F,0,0,1,0,0,0,1 @ F,0,0,1,0,0,0,1 @ F,0,0,1,0,0,0,1 @ F,0,0,1,0,0,0,1 @ F,0,0,1,0,0,0,1 @ F,0,0,1,0,0,0,1 @ F,0,0,1,0,0,0,1 @ F,0,0,1,0,0,0,1 @ F,0,0,1,0,0,0,1 @ F,0,0,1,0,0,0,1 @ F,0,0,1,0,0,0,1 @ F,0,0,1,0,0,0,1 @ F,0,0,1,0,0,0,1"
       unit="px"
       method="auto"
       mode="F"
       radius="0"
       chamfer_steps="1"
       flexible="false"
       use_knot_distance="true"
       apply_no_radius="true"
       apply_with_radius="true"
       only_selected="false"
       hide_knots="false" />
  </defs>
  <sodipodi:namedview
     pagecolor="#ffffff"
     bordercolor="#666666"
     borderopacity="1"
     objecttolerance="10"
     gridtolerance="10"
     guidetolerance="10"
     inkscape:pageopacity="0"
     inkscape:pageshadow="2"
     inkscape:window-width="1912"
     inkscape:window-height="1019"
     id="namedview2367"
     showgrid="false"
     inkscape:zoom="3.0398936"
     inkscape:cx="-48.770671"
     inkscape:cy="134.76225"
     inkscape:window-x="2564"
     inkscape:window-y="30"
     inkscape:window-maximized="0"
     inkscape:current-layer="g2373" />
  <g
     inkscape:groupmode="layer"
     inkscape:label="Image"
     id="g2373">
    <path
       style="fill:#000000;stroke:#000000;stroke-width:1px;stroke-linecap:butt;stroke-linejoin:miter;stroke-opacity:1"
       d="M 68.79665,236.0031 H 20.073941 c 0,0 -1.6327,-3.31113 -1.59898,-4.94606 0.0337,-1.63492 0.63698,-3.54782 1.59898,-4.32758 0.962,-0.77976 2.78675,-0.40815 2.78675,-0.40815 v -2.21324 c 0,0 -2.17686,-1.32802 -2.9118,-2.33079 -0.51323,-0.70027 -1.0085,-1.56366 -0.93985,-2.42915 0.0945,-1.19143 0.97691,-2.23615 1.80477,-3.09817 3.641907,-3.47181 7.887241,-5.34643 12.511486,-6.99439 0.336282,-0.11985 0.781904,-0.44812 0.975245,-0.74821 0.334971,-0.51993 0.784473,-1.31113 0.822414,-1.8639 0.03715,-0.5413 -0.263518,-1.34595 -0.52806,-1.93622 -0.192547,-0.42964 -0.758463,-0.76483 -1.22965,-0.76483 h -3.272294 c -0.275414,0 -0.636632,-0.17594 -0.789633,-0.40487 -0.29817,-0.44614 -0.718428,-1.17579 -0.718428,-1.74425 0,-0.59507 0.460537,-1.36679 0.759454,-1.80501 0.132358,-0.19403 0.440599,-0.3441 0.675806,-0.3441 h 3.513944 c 0.377934,0 0.915491,-0.20159 1.182301,-0.46915 0.574801,-0.57643 1.474211,-1.59686 1.731638,-2.56092 0.235849,-0.88325 0.163235,-3.2166 0.163235,-3.2166 l -2.985816,-0.54985 c -0.29038,-0.0535 -0.501643,-0.30596 -0.503053,-0.60122 l -0.01197,-2.50568 -1.35258,-1.36776 c 0,0 11.927554,-7.46205 16.208091,-12.87305 3.483896,-4.40398 5.830315,-9.7932 7.159838,-15.24892 2.29418,-9.41426 1.13605,-30.03717 1.13605,-30.03717 h -1.620183 c -0.346132,0 -0.675684,-0.27784 -0.680174,-0.62334 -0.008,-0.61502 0.05345,-1.36872 0.05345,-1.36872 h -2.018487 c -0.402469,0 -0.728735,-0.32627 -0.728735,-0.72873 l 0,-3.51283 -2.057225,-0.76414 c -0.339654,-0.12616 -0.565009,-0.45027 -0.565009,-0.8126 v -1.74755 h 1.943395 c 0.583127,0 0.580861,-1.69803 0,-1.74938 l -9.633773,-0.85172 c -1.106153,-0.0978 -1.616041,-1.74761 -1.719685,-2.85323 -0.10021,-1.069 0.348859,-2.27366 1.121038,-3.01967 2.802463,-2.70749 11.092966,-3.68847 11.092966,-3.68847 0,0 1.975525,-1.53735 2.068695,-2.98826 0.05812,-0.90511 -0.859474,-3.08807 -0.859474,-3.08807 l -2.220272,0.2562 c 0,0 -0.31162,-1.99746 0.09501,-2.860479 0.266147,-0.564864 0.845204,-0.961629 1.404179,-1.239931 0.832419,-0.414444 1.929936,-0.08817 2.733747,-0.55569 0.74442,-0.43297 1.52011,-1.103792 1.69913,-1.946151 0.13322,-0.6269 -0.56624,-1.837429 -0.56624,-1.837429 l -3.167727,-0.533419 c 0,0 -1.249662,-0.645129 -1.05915,-1.256536 0.141509,-0.454142 1.181875,-0.799748 1.181875,-0.799748 H 55.36366 C 55.45626,87.152738 54.72491,81.664496 51.866628,78.291497 47.503623,71.889002 43.415071,67.862292 37.376535,63.221756 l 1.357211,-2.989788 c 0.199191,-0.438795 0.534196,-0.443176 0.794728,-0.03804 0.349126,0.542908 0.863442,1.200617 1.370475,1.329722 0.718438,0.182934 1.532899,-0.28364 2.082295,-0.781418 0.508674,-0.460882 0.952923,-1.475235 1.227943,-2.216458 0.177017,-0.47709 0.566693,-0.563691 0.92196,-0.198849 1.183548,1.215444 3.791636,3.629864 5.660823,3.430514 2.801633,-0.298796 3.44554,-4.707831 5.94467,-6.008883 2.54272,-1.323738 8.47712,-1.448298 8.47712,-1.448298 L 65.0398,52.352876 c 0,0 -1.72136,-0.416341 -2.22288,-1.067605 -0.58133,-0.754907 -0.69874,-1.868122 -0.53813,-2.807289 0.15225,-0.890323 1.36551,-1.861332 1.36551,-1.861332 h 2.00551 v -2.25657 l -2.21987,-0.319171 c 0,0 -0.33677,-1.315307 -0.25728,-1.97414 0.10047,-0.832698 0.9093,-2.346166 0.9093,-2.346166 h 2.40865 c 0,0 -0.39121,-1.601293 -0.46587,-2.214302 -0.10056,-0.825821 -1.25619,-2.204266 -1.25619,-2.204266 1.39262,-1.012062 2.2754,-3.140623 4.0281,-3.165588 z m 0,0 h 48.72271 c 0,0 1.6327,-3.31113 1.59898,-4.94606 -0.0337,-1.63492 -0.63698,-3.54782 -1.59898,-4.32758 -0.962,-0.77976 -2.78675,-0.40815 -2.78675,-0.40815 v -2.21324 c 0,0 2.17686,-1.32802 2.9118,-2.33079 0.51323,-0.70027 1.0085,-1.56366 0.93985,-2.42915 -0.0945,-1.19143 -0.97691,-2.23615 -1.80477,-3.09817 -3.64191,-3.47181 -7.88724,-5.34643 -12.51149,-6.99439 -0.33628,-0.11985 -0.7819,-0.44812 -0.97524,-0.74821 -0.33497,-0.51993 -0.78447,-1.31113 -0.82242,-1.8639 -0.0371,-0.5413 0.26352,-1.34595 0.52806,-1.93622 0.19255,-0.42964 0.75847,-0.76483 1.22965,-0.76483 h 3.2723 c 0.27541,0 0.63663,-0.17594 0.78963,-0.40487 0.29817,-0.44614 0.71843,-1.17579 0.71843,-1.74425 0,-0.59507 -0.46054,-1.36679 -0.75946,-1.80501 -0.13235,-0.19403 -0.44059,-0.3441 -0.6758,-0.3441 h -3.51394 c -0.37794,0 -0.9155,-0.20159 -1.18231,-0.46915 -0.5748,-0.57643 -1.47421,-1.59686 -1.73163,-2.56092 -0.23585,-0.88325 -0.16324,-3.2166 -0.16324,-3.2166 l 2.98582,-0.54985 c 0.29038,-0.0535 0.50164,-0.30596 0.50305,-0.60122 l 0.012,-2.50568 1.35258,-1.36776 c 0,0 -11.927555,-7.46205 -16.208092,-12.87305 -3.483896,-4.40398 -5.830315,-9.7932 -7.159838,-15.24892 -2.29418,-9.41426 -1.13605,-30.03717 -1.13605,-30.03717 h 1.620183 c 0.346132,0 0.675684,-0.27784 0.680174,-0.62334 0.008,-0.61502 -0.05345,-1.36872 -0.05345,-1.36872 h 2.018487 c 0.402469,0 0.728735,-0.32627 0.728735,-0.72873 v -3.51283 l 2.057225,-0.76414 c 0.339654,-0.12616 0.565009,-0.45027 0.565009,-0.8126 v -1.74755 h -1.943395 c -0.583127,0 -0.580861,-1.69803 0,-1.74938 l 9.633773,-0.85172 c 1.106153,-0.0978 1.616041,-1.74761 1.719685,-2.85323 0.10021,-1.069 -0.348859,-2.27366 -1.121038,-3.01967 -2.802463,-2.70749 -11.092966,-3.68847 -11.092966,-3.68847 0,0 -1.975525,-1.53735 -2.068695,-2.98826 -0.05812,-0.90511 0.859474,-3.08807 0.859474,-3.08807 l 2.220272,0.2562 c 0,0 0.31162,-1.99746 -0.09501,-2.860479 -0.266147,-0.564864 -0.845204,-0.961629 -1.404179,-1.239931 -0.832419,-0.414444 -1.929936,-0.08817 -2.733747,-0.55569 -0.74442,-0.43297 -1.52011,-1.103792 -1.69913,-1.946151 -0.13322,-0.6269 0.56624,-1.837429 0.56624,-1.837429 l 3.167727,-0.533419 c 0,0 1.249662,-0.645129 1.05915,-1.256536 -0.141509,-0.454142 -1.181875,-0.799748 -1.181875,-0.799748 H 82.22964 c -0.0926,-4.491229 0.63875,-9.979471 3.497032,-13.35247 4.363005,-6.402495 8.451557,-10.429205 14.490098,-15.069741 l -1.357216,-2.989788 c -0.199191,-0.438795 -0.534196,-0.443176 -0.794728,-0.03804 -0.349126,0.542908 -0.863442,1.200617 -1.370475,1.329722 -0.718438,0.182934 -1.532899,-0.28364 -2.082295,-0.781418 -0.508674,-0.460882 -0.952923,-1.475235 -1.227943,-2.216458 -0.177017,-0.47709 -0.566693,-0.563691 -0.92196,-0.198849 -1.183548,1.215444 -3.791636,3.629864 -5.660823,3.430514 -2.801633,-0.298796 -3.44554,-4.707831 -5.94467,-6.008883 -2.54272,-1.323738 -8.47712,-1.448298 -8.47712,-1.448298 l 0.17396,-1.947386 c 0,0 1.72136,-0.416341 2.22288,-1.067605 0.58133,-0.754907 0.69874,-1.868122 0.53813,-2.807289 C 75.16226,47.587659 73.949,46.61665 73.949,46.61665 h -2.00551 v -2.25657 l 2.21987,-0.319171 c 0,0 0.33677,-1.315307 0.25728,-1.97414 -0.10047,-0.832698 -0.9093,-2.346166 -0.9093,-2.346166 h -2.40865 c 0,0 0.39121,-1.601293 0.46587,-2.214302 0.10056,-0.825821 1.25619,-2.204266 1.25619,-2.204266 -1.39262,-1.012062 -2.2754,-3.140623 -4.0281,-3.165588 z"
       id="path2377"
       sodipodi:nodetypes="ccssccssccsccsccsccccsscccccccssssscsccssssccscccccsscssccssccccsccsccc"
       inkscape:path-effect="#path-effect2379;#path-effect2381"
       inkscape:original-d="M 68.79665,236.0031 H 20.073941 c 0,0 -1.6327,-3.31113 -1.59898,-4.94606 0.0337,-1.63492 0.63698,-3.54782 1.59898,-4.32758 0.962,-0.77976 2.78675,-0.40815 2.78675,-0.40815 v -2.21324 c 0,0 -2.17686,-1.32802 -2.9118,-2.33079 -0.51323,-0.70027 -1.0085,-1.56366 -0.93985,-2.42915 0.0945,-1.19143 0.97691,-2.23615 1.80477,-3.09817 3.80135,-3.62381 8.26012,-5.50751 13.120995,-7.20965 0,0 1.127087,-1.50722 1.18815,-2.39685 0.06502,-0.94727 -0.90455,-2.70105 -0.90455,-2.70105 h -4.624135 c 0,0 -1.00938,-1.26813 -1.00938,-2.14912 0,-0.88098 1.00938,-2.14911 1.00938,-2.14911 h 4.624135 c 0,0 1.842131,-1.5789 2.229628,-3.03007 0.235849,-0.88325 0.163235,-3.2166 0.163235,-3.2166 l -3.486438,-0.64204 -0.0144,-3.01471 -1.35258,-1.36776 c 0,0 11.927554,-7.46205 16.208091,-12.87305 3.483896,-4.40398 5.830315,-9.7932 7.159838,-15.24892 2.29418,-9.41426 1.13605,-30.03717 1.13605,-30.03717 h -2.24691 c -0.12187,-0.49703 0,-1.99206 0,-1.99206 h -2.747222 v -4.24156 l -2.622234,-0.97401 v -2.35028 h 1.943395 c 0.583127,0 0.580861,-1.69803 0,-1.74938 l -9.633773,-0.85172 c -1.106153,-0.0978 -1.616041,-1.74761 -1.719685,-2.85323 -0.10021,-1.069 0.348859,-2.27366 1.121038,-3.01967 2.802463,-2.70749 11.092966,-3.68847 11.092966,-3.68847 0,0 1.975525,-1.53735 2.068695,-2.98826 0.05812,-0.90511 -0.859474,-3.08807 -0.859474,-3.08807 l -2.220272,0.2562 c 0,0 -0.31162,-1.99746 0.09501,-2.860479 0.266147,-0.564864 0.845204,-0.961629 1.404179,-1.239931 0.832419,-0.414444 1.929936,-0.08817 2.733747,-0.55569 0.74442,-0.43297 1.52011,-1.103792 1.69913,-1.946151 0.13322,-0.6269 -0.56624,-1.837429 -0.56624,-1.837429 l -3.167727,-0.533419 c 0,0 -1.249662,-0.645129 -1.05915,-1.256536 0.141509,-0.454142 1.181875,-0.799748 1.181875,-0.799748 H 55.36366 C 55.45626,87.152738 54.72491,81.664496 51.866628,78.291497 47.503623,71.889002 43.415071,67.862292 37.376535,63.221756 l 1.717878,-3.784297 c 0,0 0.913513,1.859316 1.804536,2.086195 0.718438,0.182934 1.532899,-0.28364 2.082295,-0.781418 0.850765,-0.770833 1.521315,-3.089897 1.521315,-3.089897 0,0 3.800007,4.370601 6.289411,4.105104 2.801633,-0.298796 3.44554,-4.707831 5.94467,-6.008883 2.54272,-1.323738 8.47712,-1.448298 8.47712,-1.448298 L 65.0398,52.352876 c 0,0 -1.72136,-0.416341 -2.22288,-1.067605 -0.58133,-0.754907 -0.69874,-1.868122 -0.53813,-2.807289 0.15225,-0.890323 1.36551,-1.861332 1.36551,-1.861332 h 2.00551 v -2.25657 l -2.21987,-0.319171 c 0,0 -0.33677,-1.315307 -0.25728,-1.97414 0.10047,-0.832698 0.9093,-2.346166 0.9093,-2.346166 h 2.40865 c 0,0 -0.39121,-1.601293 -0.46587,-2.214302 -0.10056,-0.825821 -1.25619,-2.204266 -1.25619,-2.204266 1.39262,-1.012062 2.2754,-3.140623 4.0281,-3.165588 z"
       transform="translate(-6,-4)" />
  </g>
</svg>
