<?xml version="1.0" encoding="UTF-8" standalone="no"?>
<svg
   xmlns:dc="http://purl.org/dc/elements/1.1/"
   xmlns:cc="http://creativecommons.org/ns#"
   xmlns:rdf="http://www.w3.org/1999/02/22-rdf-syntax-ns#"
   xmlns:svg="http://www.w3.org/2000/svg"
   xmlns="http://www.w3.org/2000/svg"
   xmlns:sodipodi="http://sodipodi.sourceforge.net/DTD/sodipodi-0.dtd"
   xmlns:inkscape="http://www.inkscape.org/namespaces/inkscape"
   version="1.1"
   id="svg3967"
   width="129.33333"
   height="253.33333"
   viewBox="0 0 129.33333 253.33333"
   sodipodi:docname="blackKing.svg"
   inkscape:version="1.0.1 (3bc2e813f5, 2020-09-07)">
  <metadata
     id="metadata3973">
    <rdf:RDF>
      <cc:Work
         rdf:about="">
        <dc:format>image/svg+xml</dc:format>
        <dc:type
           rdf:resource="http://purl.org/dc/dcmitype/StillImage" />
        <dc:title></dc:title>
      </cc:Work>
    </rdf:RDF>
  </metadata>
  <defs
     id="defs3971">
    <inkscape:path-effect
       effect="fillet_chamfer"
       id="path-effect4584"
       is_visible="true"
       lpeversion="1"
       satellites_param="F,0,0,1,0,0,0,1 @ F,0,0,1,0,0,0,1 @ F,0,0,1,0,0,0,1 @ F,0,0,1,0,0,0,1 @ F,0,0,1,0,0,0,1 @ F,0,0,1,0,0,0,1 @ F,0,0,1,0,0,0,1 @ F,0,0,1,0,0,0,1 @ F,0,0,1,0,0,0,1 @ F,0,0,1,0,0.65519449,0,1 @ F,0,0,1,0,0,0,1 @ F,0,0,1,0,0.67174678,0,1 @ F,0,0,1,0,0.27119922,0,1 @ F,0,0,1,0,0,0,1 @ F,0,0,1,0,0.64048553,0,1 @ F,0,0,1,0,0,0,1 @ F,0,0,1,0,0,0,1 @ F,0,0,1,0,0,0,1 @ F,0,0,1,0,0,0,1 @ F,0,0,1,0,0,0,1 @ F,0,0,1,0,0,0,1 @ F,0,0,1,0,0,0,1 @ F,0,0,1,0,0,0,1 @ F,0,0,1,0,0,0,1 @ F,0,0,1,0,1.0298508,0,1 @ F,0,0,1,0,0,0,1 @ F,0,0,1,0,1.4654219,0,1 @ F,0,0,1,0,0,0,1 @ F,0,0,1,0,1.4744799,0,1 @ F,0,0,1,0,0,0,1 @ F,0,0,1,0,0,0,1 @ F,0,0,1,0,0,0,1 @ F,0,0,1,0,0,0,1 @ F,0,0,1,0,0,0,1 @ F,0,0,1,0,0,0,1 @ F,0,0,1,0,1.2042004,0,1 @ F,0,0,1,0,0,0,1 @ F,0,0,1,0,0.72640209,0,1 @ F,0,0,1,0,0,0,1 @ F,0,0,1,0,0,0,1 @ F,0,0,1,0,0,0,1 @ F,0,0,1,0,1.1165646,0,1 @ F,0,0,1,0,0,0,1 @ F,0,0,1,0,0,0,1 @ F,0,0,1,0,0.64952825,0,1 @ F,0,0,1,0,0,0,1 @ F,0,0,1,0,0.27649277,0,1 @ F,0,0,1,0,0,0,1 @ F,0,0,1,0,0,0,1 @ F,0,0,1,0,0,0,1 @ F,0,0,1,0,0,0,1 @ F,0,0,1,0,0,0,1 @ F,0,0,1,0,0,0,1 @ F,0,0,1,0,0,0,1 @ F,0,0,1,0,0,0,1 @ F,0,0,1,0,0,0,1 @ F,0,0,1,0,0,0,1 @ F,0,0,1,0,0,0,1 @ F,0,0,1,0,0,0,1 @ F,0,0,1,0,0,0,1 @ F,0,0,1,0,0,0,1 @ F,0,0,1,0,0,0,1 @ F,0,0,1,0,0,0,1 @ F,0,0,1,0,0,0,1 @ F,0,0,1,0,0,0,1 @ F,0,0,1,0,0,0,1 @ F,0,0,1,0,0,0,1 @ F,0,0,1,0,0,0,1 @ F,0,0,1,0,0,0,1 @ F,0,0,1,0,0,0,1 @ F,0,0,1,0,0,0,1 @ F,0,0,1,0,0,0,1 @ F,0,0,1,0,0,0,1 @ F,0,0,1,0,0,0,1 @ F,0,0,1,0,0,0,1 @ F,0,0,1,0,0,0,1 @ F,0,0,1,0,0,0,1 @ F,0,0,1,0,0,0,1 @ F,0,0,1,0,0,0,1 @ F,0,0,1,0,0,0,1 @ F,0,0,1,0,0,0,1"
       unit="px"
       method="auto"
       mode="F"
       radius="0"
       chamfer_steps="1"
       flexible="false"
       use_knot_distance="true"
       apply_no_radius="true"
       apply_with_radius="true"
       only_selected="false"
       hide_knots="false" />
    <inkscape:path-effect
       effect="mirror_symmetry"
       start_point="69.211445,16.618719"
       end_point="69.211445,236.0031"
       center_point="69.211445,126.31091"
       id="path-effect4582"
       is_visible="true"
       lpeversion="1"
       mode="free"
       discard_orig_path="false"
       fuse_paths="false"
       oposite_fuse="false"
       split_items="false" />
    <inkscape:path-effect
       effect="fillet_chamfer"
       id="path-effect2379"
       is_visible="true"
       lpeversion="1"
       satellites_param="F,0,0,1,0,0,0,1 @ F,0,0,1,0,0,0,1 @ F,0,0,1,0,0,0,1 @ F,0,0,1,0,0,0,1 @ F,0,0,1,0,0,0,1 @ F,0,0,1,0,0,0,1 @ F,0,0,1,0,0,0,1 @ F,0,0,1,0,0,0,1 @ F,0,0,1,0,0,0,1 @ F,0,0,1,0,0.64643545,0,1 @ F,0,0,1,0,0,0,1 @ F,0,0,1,0,0.85316017,0,1 @ F,0,0,1,0,0.49868123,0,1 @ F,0,0,1,0,0,0,1 @ F,0,0,1,0,0.42587978,0,1 @ F,0,0,1,0,0.68431132,0,1 @ F,0,0,1,0,0,0,1 @ F,0,0,1,0,0,0,1 @ F,0,0,1,0,0.50903969,0,1 @ F,0,0,1,0,0,0,1 @ F,0,0,1,0,0,0,1 @ F,0,0,1,0,0,0,1 @ F,0,0,1,0,0,0,1 @ F,0,0,1,0,0,0,1 @ F,0,0,1,0,0.62672695,0,1 @ F,0,0,1,0,0,0,1 @ F,0,0,1,0,0.72873477,0,1 @ F,0,0,1,0,0,0,1 @ F,0,0,1,0,0.60272761,0,1 @ F,0,0,1,0,0,0,1 @ F,0,0,1,0,0,0,1 @ F,0,0,1,0,0,0,1 @ F,0,0,1,0,0,0,1 @ F,0,0,1,0,0,0,1 @ F,0,0,1,0,0,0,1 @ F,0,0,1,0,0,0,1 @ F,0,0,1,0,0,0,1 @ F,0,0,1,0,0,0,1 @ F,0,0,1,0,0,0,1 @ F,0,0,1,0,0,0,1 @ F,0,0,1,0,0,0,1 @ F,0,0,1,0,0,0,1 @ F,0,0,1,0,0,0,1 @ F,0,0,1,0,0,0,1 @ F,0,0,1,0,0,0,1 @ F,0,0,1,0,0,0,1 @ F,0,0,1,0,0,0,1 @ F,0,0,1,0,0,0,1 @ F,0,0,1,0,0,0,1 @ F,0,0,1,0,0,0,1 @ F,0,0,1,0,0.87253963,0,1 @ F,0,0,1,0,0,0,1 @ F,0,0,1,0,0,0,1 @ F,0,0,1,0,0.92213333,0,1 @ F,0,0,1,0,0,0,1 @ F,0,0,1,0,0,0,1 @ F,0,0,1,0,0,0,1 @ F,0,0,1,0,0,0,1 @ F,0,0,1,0,0,0,1 @ F,0,0,1,0,0,0,1 @ F,0,0,1,0,0,0,1 @ F,0,0,1,0,0,0,1 @ F,0,0,1,0,0,0,1 @ F,0,0,1,0,0,0,1 @ F,0,0,1,0,0,0,1 @ F,0,0,1,0,0,0,1 @ F,0,0,1,0,0,0,1 @ F,0,0,1,0,0,0,1 @ F,0,0,1,0,0,0,1 @ F,0,0,1,0,0,0,1"
       unit="px"
       method="auto"
       mode="F"
       radius="0"
       chamfer_steps="1"
       flexible="false"
       use_knot_distance="true"
       apply_no_radius="true"
       apply_with_radius="true"
       only_selected="false"
       hide_knots="false" />
    <inkscape:path-effect
       effect="mirror_symmetry"
       start_point="68.79665,32.136444"
       end_point="68.79665,236.0031"
       center_point="68.79665,134.06977"
       id="path-effect2381"
       is_visible="true"
       lpeversion="1"
       mode="free"
       discard_orig_path="false"
       fuse_paths="false"
       oposite_fuse="false"
       split_items="false" />
  </defs>
  <sodipodi:namedview
     pagecolor="#ffffff"
     bordercolor="#666666"
     borderopacity="1"
     objecttolerance="10"
     gridtolerance="10"
     guidetolerance="10"
     inkscape:pageopacity="0"
     inkscape:pageshadow="2"
     inkscape:window-width="1912"
     inkscape:window-height="1019"
     id="namedview3969"
     showgrid="false"
     inkscape:document-rotation="0"
     inkscape:zoom="2.1017819"
     inkscape:cx="23.132008"
     inkscape:cy="118.86522"
     inkscape:window-x="2564"
     inkscape:window-y="30"
     inkscape:window-maximized="0"
     inkscape:current-layer="g3975" />
  <g
     inkscape:groupmode="layer"
     inkscape:label="Image"
     id="g3975">
    <path
       style="fill:#000000;stroke:#000000;stroke-width:0.2;stroke-linecap:butt;stroke-linejoin:miter;stroke-miterlimit:4;stroke-dasharray:none;stroke-opacity:1"
       d="M 69.211445,236.0031 H 20.073941 c 0,0 -1.6327,-3.31113 -1.59898,-4.94606 0.0337,-1.63492 0.63698,-3.54782 1.59898,-4.32758 0.962,-0.77976 2.78675,-0.40815 2.78675,-0.40815 v -2.21324 c 0,0 -2.17686,-1.32802 -2.9118,-2.33079 -0.51323,-0.70027 -1.0085,-1.56366 -0.93985,-2.42915 0.0945,-1.19143 0.97691,-2.23615 1.80477,-3.09817 3.639741,-3.46975 7.882192,-5.3442 12.503235,-6.99145 0.340829,-0.1215 0.792513,-0.45421 0.988237,-0.75852 0.334456,-0.52001 0.77991,-1.30637 0.817673,-1.85653 0.04075,-0.5937 -0.324897,-1.5042 -0.603533,-2.10119 -0.156769,-0.33588 -0.601768,-0.59986 -0.972764,-0.59986 H 29.86547 c -0.149779,0 -0.346125,-0.0956 -0.432984,-0.21762 -0.285206,-0.4006 -0.847595,-1.2739 -0.847595,-1.9315 0,-0.5207 0.352607,-1.17664 0.64101,-1.62605 0.190826,-0.29737 0.655125,-0.52306 1.008856,-0.52306 h 3.983649 c 0,0 1.842131,-1.5789 2.229628,-3.03007 0.235849,-0.88325 0.163235,-3.2166 0.163235,-3.2166 l -3.486438,-0.64204 -0.0144,-3.01471 -1.35258,-1.36776 c 0,0 11.927554,-7.46205 16.208091,-12.87305 3.483896,-4.40398 5.830315,-9.7932 7.159838,-15.24892 2.29418,-9.41426 1.13605,-30.03717 1.13605,-30.03717 h -1.217059 c -0.568771,0 -1.09423,-0.45904 -1.080224,-1.02643 0.01231,-0.49871 0.05037,-0.96563 0.05037,-0.96563 l -1.2818,0 c -0.80933,0 -1.465422,-0.65609 -1.465422,-1.46542 v -2.77614 l -1.240026,-0.4606 c -0.830913,-0.30864 -1.382208,-1.10151 -1.382208,-1.98789 v -0.8758 h 1.943395 c 0.583127,0 0.580861,-1.69803 0,-1.74938 l -9.633773,-0.85172 c -1.106153,-0.0978 -1.616041,-1.74761 -1.719685,-2.85323 -0.10021,-1.069 0.348859,-2.27366 1.121038,-3.01967 2.145293,-2.07259 7.506546,-3.13346 9.902978,-3.51703 0.655652,-0.10494 1.616879,-0.50588 2.070564,-0.99146 0.540095,-0.57807 1.13787,-1.38573 1.188119,-2.16824 0.03739,-0.58223 -0.328971,-1.69322 -0.595112,-2.41179 -0.139284,-0.37605 -0.587439,-0.639 -0.985976,-0.59301 l -1.498658,0.17293 c 0,0 -0.31162,-1.99746 0.09501,-2.860479 0.266147,-0.564864 0.845204,-0.961629 1.404179,-1.239931 0.499012,-0.248448 1.093291,-0.230706 1.662455,-0.277355 0.609258,-0.04994 1.520928,-0.516108 1.970335,-0.936437 0.386951,-0.361914 0.695447,-0.795678 0.800087,-1.288049 0.13322,-0.6269 -0.56624,-1.837429 -0.56624,-1.837429 l -2.527216,-0.425562 c -0.353745,-0.05957 -0.90254,-0.240241 -1.184625,-0.46116 -0.309285,-0.242222 -0.616529,-0.577513 -0.515036,-0.903233 0.09604,-0.308212 0.60608,-0.566433 0.92395,-0.700558 0.140613,-0.05933 0.381715,-0.09919 0.534418,-0.09919 h 2.327989 c 0,0 -4.179183,-9.531526 -5.90402,-13.957863 -2.730368,-7.006764 -7.57217,-20.294217 -7.57217,-20.294217 0,0 2.520127,-3.732179 6.191939,-4.94711 2.357669,-0.780106 11.491141,-1.56541 11.491141,-1.56541 0,0 -0.377668,-1.372857 0.07016,-1.943993 0.370321,-0.472289 1.649845,-0.63417 1.649845,-0.63417 L 61.42939,47.43251 c 0,0 -1.056638,-0.504269 -1.280177,-0.996721 -0.311493,-0.686213 -0.275673,-1.621294 0.128834,-2.257132 0.349023,-0.548621 1.71691,-0.925983 1.71691,-0.925983 0,0 -0.748154,-1.821519 -0.356347,-2.427561 0.376638,-0.58258 2.260154,-0.600444 2.260154,-0.600444 v -2.09437 H 60.1825 c 0,0 -0.889723,1.366404 -1.622715,1.661262 -3.795203,-0.02251 -5.28811,-2.254012 -4.950091,-5.448023 0.231811,-2.833852 1.853337,-5.79101 4.950091,-5.693356 0.899228,0.05096 1.622715,1.90681 1.622715,1.90681 l 3.881451,0.146208 c 0,0 0.272799,-0.424551 0.296404,-0.666569 0.03425,-0.35121 -0.235117,-1.03219 -0.235117,-1.03219 l -1.435014,-0.03162 c 0,0 -0.288479,-0.731484 -0.276139,-1.113787 0.01417,-0.43909 0.398994,-1.25611 0.398994,-1.25611 0,0 -0.925767,-0.119037 -1.247279,-0.417051 -0.490494,-0.454646 -0.787451,-1.180434 -0.778556,-1.84917 0.0073,-0.548225 0.176047,-1.465399 0.678348,-1.923623 0.787383,-0.718292 2.168736,-0.751736 3.100094,-0.782722 1.23481,-0.04108 3.124342,0.280567 3.124342,0.280567 0,0 0.07937,-0.648857 0,-0.921585 -0.178623,-0.613765 -1.003761,-0.654554 -1.22225,-1.255284 -0.302374,-0.831372 -0.348181,-1.917089 0.192398,-2.617363 0.480466,-0.622403 2.551269,-0.485108 2.551269,-0.485108 z m 0,0 h 49.137505 c 0,0 1.6327,-3.31113 1.59898,-4.94606 -0.0337,-1.63492 -0.63698,-3.54782 -1.59898,-4.32758 -0.962,-0.77976 -2.78675,-0.40815 -2.78675,-0.40815 v -2.21324 c 0,0 2.17686,-1.32802 2.9118,-2.33079 0.51323,-0.70027 1.0085,-1.56366 0.93985,-2.42915 -0.0945,-1.19143 -0.97691,-2.23615 -1.80477,-3.09817 -3.63974,-3.46975 -7.88219,-5.3442 -12.50324,-6.99145 -0.34083,-0.1215 -0.79251,-0.45421 -0.98823,-0.75852 -0.33446,-0.52001 -0.77991,-1.30637 -0.81768,-1.85653 -0.0408,-0.5937 0.3249,-1.5042 0.60354,-2.10119 0.15677,-0.33588 0.60177,-0.59986 0.97276,-0.59986 h 3.68119 c 0.14978,0 0.34612,-0.0956 0.43298,-0.21762 0.28521,-0.4006 0.8476,-1.2739 0.8476,-1.9315 0,-0.5207 -0.35261,-1.17664 -0.64101,-1.62605 -0.19083,-0.29737 -0.65513,-0.52306 -1.00886,-0.52306 h -3.98365 c 0,0 -1.84213,-1.5789 -2.22962,-3.03007 -0.23585,-0.88325 -0.16324,-3.2166 -0.16324,-3.2166 l 3.48644,-0.64204 0.0144,-3.01471 1.35258,-1.36776 c 0,0 -11.927555,-7.46205 -16.208092,-12.87305 -3.483896,-4.40398 -5.830315,-9.7932 -7.159838,-15.24892 -2.29418,-9.41426 -1.13605,-30.03717 -1.13605,-30.03717 h 1.217059 c 0.568771,0 1.09423,-0.45904 1.080224,-1.02643 -0.01231,-0.49871 -0.05037,-0.96563 -0.05037,-0.96563 l 1.2818,0 c 0.80933,0 1.465422,-0.65609 1.465422,-1.46542 v -2.77614 l 1.240026,-0.4606 c 0.830913,-0.30864 1.382208,-1.10151 1.382208,-1.98789 v -0.8758 h -1.943395 c -0.583127,0 -0.580861,-1.69803 0,-1.74938 l 9.633773,-0.85172 c 1.106153,-0.0978 1.616041,-1.74761 1.719685,-2.85323 0.10021,-1.069 -0.348859,-2.27366 -1.121038,-3.01967 -2.145293,-2.07259 -7.506546,-3.13346 -9.902978,-3.51703 -0.655652,-0.10494 -1.616879,-0.50588 -2.070564,-0.99146 -0.540095,-0.57807 -1.13787,-1.38573 -1.188119,-2.16824 -0.03739,-0.58223 0.328971,-1.69322 0.595112,-2.41179 0.139284,-0.37605 0.587439,-0.639 0.985976,-0.59301 l 1.498658,0.17293 c 0,0 0.31162,-1.99746 -0.09501,-2.860479 -0.266147,-0.564864 -0.845204,-0.961629 -1.404179,-1.239931 -0.499012,-0.248448 -1.093291,-0.230706 -1.662455,-0.277355 -0.609258,-0.04994 -1.520928,-0.516108 -1.970335,-0.936437 -0.386951,-0.361914 -0.695447,-0.795678 -0.800087,-1.288049 -0.13322,-0.6269 0.56624,-1.837429 0.56624,-1.837429 l 2.527216,-0.425562 c 0.353745,-0.05957 0.90254,-0.240241 1.184625,-0.46116 0.309285,-0.242222 0.616529,-0.577513 0.515036,-0.903233 -0.09604,-0.308212 -0.60608,-0.566433 -0.92395,-0.700558 -0.140613,-0.05933 -0.381715,-0.09919 -0.534418,-0.09919 H 83.05923 c 0,0 4.179183,-9.531526 5.90402,-13.957863 2.730368,-7.006764 7.57217,-20.294217 7.57217,-20.294217 0,0 -2.520127,-3.732179 -6.191939,-4.94711 -2.357669,-0.780106 -11.491141,-1.56541 -11.491141,-1.56541 0,0 0.377668,-1.372857 -0.07016,-1.943993 -0.370321,-0.472289 -1.649845,-0.63417 -1.649845,-0.63417 L 76.9935,47.43251 c 0,0 1.056638,-0.504269 1.280177,-0.996721 0.311493,-0.686213 0.275673,-1.621294 -0.128834,-2.257132 -0.349023,-0.548621 -1.71691,-0.925983 -1.71691,-0.925983 0,0 0.748154,-1.821519 0.356347,-2.427561 -0.376638,-0.58258 -2.260154,-0.600444 -2.260154,-0.600444 v -2.09437 h 3.716264 c 0,0 0.889723,1.366404 1.622715,1.661262 3.795203,-0.02251 5.28811,-2.254012 4.950091,-5.448023 -0.231811,-2.833852 -1.853337,-5.79101 -4.950091,-5.693356 -0.899228,0.05096 -1.622715,1.90681 -1.622715,1.90681 L 74.358939,30.7032 c 0,0 -0.272799,-0.424551 -0.296404,-0.666569 -0.03425,-0.35121 0.235117,-1.03219 0.235117,-1.03219 l 1.435014,-0.03162 c 0,0 0.288479,-0.731484 0.276139,-1.113787 -0.01417,-0.43909 -0.398994,-1.25611 -0.398994,-1.25611 0,0 0.925767,-0.119037 1.247279,-0.417051 0.490494,-0.454646 0.787451,-1.180434 0.778556,-1.84917 -0.0073,-0.548225 -0.176047,-1.465399 -0.678348,-1.923623 -0.787383,-0.718292 -2.168736,-0.751736 -3.100094,-0.782722 -1.23481,-0.04108 -3.124342,0.280567 -3.124342,0.280567 0,0 -0.07937,-0.648857 0,-0.921585 0.178623,-0.613765 1.003761,-0.654554 1.22225,-1.255284 0.302374,-0.831372 0.348181,-1.917089 -0.192398,-2.617363 -0.480466,-0.622403 -2.551269,-0.485108 -2.551269,-0.485108 z"
       id="path2377"
       sodipodi:nodetypes="ccssccssccsccsccsccccsscccccccssssscsccssssccsccscscsccsscsccccccccsccscsssscssscc"
       transform="translate(-5.0324044,5.6676523)"
       inkscape:original-d="M 69.211445,236.0031 H 20.073941 c 0,0 -1.6327,-3.31113 -1.59898,-4.94606 0.0337,-1.63492 0.63698,-3.54782 1.59898,-4.32758 0.962,-0.77976 2.78675,-0.40815 2.78675,-0.40815 v -2.21324 c 0,0 -2.17686,-1.32802 -2.9118,-2.33079 -0.51323,-0.70027 -1.0085,-1.56366 -0.93985,-2.42915 0.0945,-1.19143 0.97691,-2.23615 1.80477,-3.09817 3.80135,-3.62381 8.26012,-5.50751 13.120995,-7.20965 0,0 1.127087,-1.50722 1.18815,-2.39685 0.06502,-0.94727 -0.90455,-2.70105 -0.90455,-2.70105 h -4.624135 c 0,0 -1.00938,-1.26813 -1.00938,-2.14912 0,-0.88098 1.00938,-2.14911 1.00938,-2.14911 h 4.624135 c 0,0 1.842131,-1.5789 2.229628,-3.03007 0.235849,-0.88325 0.163235,-3.2166 0.163235,-3.2166 l -3.486438,-0.64204 -0.0144,-3.01471 -1.35258,-1.36776 c 0,0 11.927554,-7.46205 16.208091,-12.87305 3.483896,-4.40398 5.830315,-9.7932 7.159838,-15.24892 2.29418,-9.41426 1.13605,-30.03717 1.13605,-30.03717 h -2.24691 c -0.12187,-0.49703 0,-1.99206 0,-1.99206 h -2.747222 v -4.24156 l -2.622234,-0.97401 v -2.35028 h 1.943395 c 0.583127,0 0.580861,-1.69803 0,-1.74938 l -9.633773,-0.85172 c -1.106153,-0.0978 -1.616041,-1.74761 -1.719685,-2.85323 -0.10021,-1.069 0.348859,-2.27366 1.121038,-3.01967 2.802463,-2.70749 11.092966,-3.68847 11.092966,-3.68847 0,0 1.975525,-1.53735 2.068695,-2.98826 0.05812,-0.90511 -0.859474,-3.08807 -0.859474,-3.08807 l -2.220272,0.2562 c 0,0 -0.31162,-1.99746 0.09501,-2.860479 0.266147,-0.564864 0.845204,-0.961629 1.404179,-1.239931 0.832419,-0.414444 1.929936,-0.08817 2.733747,-0.55569 0.74442,-0.43297 1.52011,-1.103792 1.69913,-1.946151 0.13322,-0.6269 -0.56624,-1.837429 -0.56624,-1.837429 l -3.167727,-0.533419 c 0,0 -1.249662,-0.645129 -1.05915,-1.256536 0.141509,-0.454142 1.181875,-0.799748 1.181875,-0.799748 h 2.604482 c 0,0 -4.179183,-9.531526 -5.90402,-13.957863 -2.730368,-7.006764 -7.57217,-20.294217 -7.57217,-20.294217 0,0 2.520127,-3.732179 6.191939,-4.94711 2.357669,-0.780106 11.491141,-1.56541 11.491141,-1.56541 0,0 -0.377668,-1.372857 0.07016,-1.943993 0.370321,-0.472289 1.649845,-0.63417 1.649845,-0.63417 L 61.42939,47.43251 c 0,0 -1.056638,-0.504269 -1.280177,-0.996721 -0.311493,-0.686213 -0.275673,-1.621294 0.128834,-2.257132 0.349023,-0.548621 1.71691,-0.925983 1.71691,-0.925983 0,0 -0.748154,-1.821519 -0.356347,-2.427561 0.376638,-0.58258 2.260154,-0.600444 2.260154,-0.600444 v -2.09437 H 60.1825 c 0,0 -0.889723,1.366404 -1.622715,1.661262 -3.795203,-0.02251 -5.28811,-2.254012 -4.950091,-5.448023 0.231811,-2.833852 1.853337,-5.79101 4.950091,-5.693356 0.899228,0.05096 1.622715,1.90681 1.622715,1.90681 l 3.881451,0.146208 c 0,0 0.272799,-0.424551 0.296404,-0.666569 0.03425,-0.35121 -0.235117,-1.03219 -0.235117,-1.03219 l -1.435014,-0.03162 c 0,0 -0.288479,-0.731484 -0.276139,-1.113787 0.01417,-0.43909 0.398994,-1.25611 0.398994,-1.25611 0,0 -0.925767,-0.119037 -1.247279,-0.417051 -0.490494,-0.454646 -0.787451,-1.180434 -0.778556,-1.84917 0.0073,-0.548225 0.176047,-1.465399 0.678348,-1.923623 0.787383,-0.718292 2.168736,-0.751736 3.100094,-0.782722 1.23481,-0.04108 3.124342,0.280567 3.124342,0.280567 0,0 0.07937,-0.648857 0,-0.921585 -0.178623,-0.613765 -1.003761,-0.654554 -1.22225,-1.255284 -0.302374,-0.831372 -0.348181,-1.917089 0.192398,-2.617363 0.480466,-0.622403 2.551269,-0.485108 2.551269,-0.485108 z"
       inkscape:path-effect="#path-effect4584;#path-effect4582" />
  </g>
</svg>
