<?xml version="1.0" encoding="UTF-8" standalone="no"?>
<svg
   xmlns:dc="http://purl.org/dc/elements/1.1/"
   xmlns:cc="http://creativecommons.org/ns#"
   xmlns:rdf="http://www.w3.org/1999/02/22-rdf-syntax-ns#"
   xmlns:svg="http://www.w3.org/2000/svg"
   xmlns="http://www.w3.org/2000/svg"
   xmlns:sodipodi="http://sodipodi.sourceforge.net/DTD/sodipodi-0.dtd"
   xmlns:inkscape="http://www.inkscape.org/namespaces/inkscape"
   version="1.1"
   id="svg1566"
   width="108"
   height="213.33333"
   viewBox="0 0 108 213.33333"
   sodipodi:docname="whiteBishop.svg"
   inkscape:version="1.0.1 (3bc2e813f5, 2020-09-07)">
  <metadata
     id="metadata1572">
    <rdf:RDF>
      <cc:Work
         rdf:about="">
        <dc:format>image/svg+xml</dc:format>
        <dc:type
           rdf:resource="http://purl.org/dc/dcmitype/StillImage" />
        <dc:title />
      </cc:Work>
    </rdf:RDF>
  </metadata>
  <defs
     id="defs1570">
    <filter
       inkscape:collect="always"
       style="color-interpolation-filters:sRGB"
       id="filter2161"
       x="-0.026852965"
       width="1.0515066"
       y="-0.013696551"
       height="1.024598">
      <feGaussianBlur
         inkscape:collect="always"
         stdDeviation="0.0023574814"
         id="feGaussianBlur2163" />
    </filter>
  </defs>
  <sodipodi:namedview
     pagecolor="#ffffff"
     bordercolor="#666666"
     borderopacity="1"
     objecttolerance="10"
     gridtolerance="10"
     guidetolerance="10"
     inkscape:pageopacity="0"
     inkscape:pageshadow="2"
     inkscape:window-width="1912"
     inkscape:window-height="1019"
     id="namedview1568"
     showgrid="false"
     inkscape:zoom="2.495866"
     inkscape:cx="-24.798395"
     inkscape:cy="114.60581"
     inkscape:window-x="2564"
     inkscape:window-y="30"
     inkscape:window-maximized="0"
     inkscape:current-layer="g1574"
     inkscape:document-rotation="0" />
  <g
     inkscape:groupmode="layer"
     inkscape:label="Image"
     id="g1574">
    <path
       style="fill:#ffffff;stroke:#ffffff;stroke-width:1px;stroke-linecap:butt;stroke-linejoin:miter;stroke-opacity:1;filter:url(#filter2161)"
       d="m 55.855569,200.7015 h 39.685043 c 0,0 1.432359,-2.36211 1.449049,-3.6805 0.0178,-1.40944 -1.449049,-3.97262 -1.449049,-3.97262 h -3.890026 c 0,0 -0.388598,-0.81274 0,-1.8955 0.388598,-1.08276 2.94678,-2.21211 3.183738,-3.86412 0.159126,-1.10939 -0.551978,-2.2773 -1.322402,-3.09125 -2.838384,-2.99873 -11.104091,-5.48986 -11.104091,-5.48986 l -0.326921,-3.7683 h 4.908249 l 0.471067,-3.94245 H 84.14166 v -2.09255 h -3.680383 v -2.05061 l 2.975393,-0.56241 -0.09901,-3.10068 1.564194,-1.5173 c 0,0 -8.071316,-3.83582 -11.179379,-6.92755 -3.887306,-3.86687 -6.244901,-8.69854 -7.866278,-13.93638 -2.517672,-8.13331 -1.412925,-25.52142 -1.412925,-25.52142 0,0 0.154375,-2.32951 1.1048,-2.98383 0.822764,-0.56643 2.522687,-0.49732 2.522687,-0.49732 0,0 -0.436092,-1.96688 0,-2.78727 0.475875,-0.89523 2.521182,-1.70136 2.521182,-1.70136 l -0.402003,-3.36883 h 7.196872 c 1.079701,0 1.417312,-1.89381 1.299386,-2.96705 -0.133848,-1.218133 -0.959223,-2.783444 -2.170865,-2.967049 0,0 -10.583959,-1.311189 -10.769353,-5.309206 -0.06694,-1.443534 3.69432,-2.268577 3.69432,-2.268577 l -1.542718,-2.656791 -1.979167,-9.55e-4 v -2.317397 l 1.979167,-1.92666 -1.979167,-2.077869 c 0,0 6.180915,-2.021726 8.336411,-4.283128 2.417354,-2.536125 4.098967,-6.07397 4.349858,-9.568621 C 78.940965,62.922 76.548392,58.381819 74.6662,54.079365 73.014073,50.30281 70.723197,46.811318 68.292943,43.48179 67.109659,41.860652 63.933263,38.783771 63.933263,38.783771 L 57.88826,60.408813 c 0,0 -0.518598,1.354697 -1.291173,1.400936 -1.071754,0.06415 -2.809227,-0.432204 -3.514172,-1.242032 -0.859017,-0.986825 -0.568347,-2.602249 -0.421439,-3.902308 0.808688,-7.156476 7.054975,-20.421789 7.054975,-20.421789 l -2.409045,-2.375623 0.03614,-1.529066 c 2.517209,-1.385613 2.925845,-4.096006 2.239687,-6.175381 -0.689963,-2.090906 -3.305586,-3.74022 -5.505529,-3.649738 -2.396303,0.09856 -4.961109,2.157343 -5.650212,4.45454 -0.684786,2.282806 0.997666,4.991327 2.251221,6.786253 -5.316191,3.548732 -10.442306,7.550468 -14.24595,12.630602 -3.58817,4.792347 -6.652328,10.346852 -7.649143,16.250064 -0.60693,4.900151 1.38627,8.85059 3.897708,12.369143 2.103279,2.946719 5.314962,4.788911 8.735889,6.453422 l -1.54749,2.077869 1.54749,1.92666 v 2.317397 h -1.54749 l -1.893641,2.657746 c 0,0 3.491872,1.003824 3.37767,2.375541 -0.332963,3.99934 -10.857576,5.202242 -10.857576,5.202242 -0.912904,0.603595 -1.508308,1.877466 -1.405732,2.967049 0.114737,1.21876 0.940002,2.96705 2.164156,2.96705 h 6.33103 l -0.131626,3.44597 c 0,0 1.429831,0.92033 1.813739,1.62422 0.456701,0.83736 0,2.78727 0,2.78727 0,0 1.827972,-0.0665 2.480421,0.49732 0.796687,0.6885 1.03705,2.98383 1.03705,2.98383 0,0 1.416763,16.26141 -0.795724,24.78606 -1.401504,5.39995 -3.611278,10.69109 -7.412901,14.67174 -3.194429,3.34486 -11.54704,6.92755 -11.54704,6.92755 l 1.560183,1.12342 -0.108144,3.10068 2.859085,0.95629 v 2.05061 l -3.334332,-0.1165 v 2.09255 l -4.227231,0.1165 0.239828,3.94245 h 4.677315 l -0.160469,3.7683 c 0,0 -7.038597,3.02745 -9.755561,5.48986 -0.911912,0.82647 -2.018369,1.86054 -2.018903,3.09125 -6.68e-4,1.53754 2.080926,2.39028 2.518882,3.86412 0.179973,0.60566 0,1.8955 0,1.8955 h -2.522202 c 0,0 -1.363882,2.57445 -1.347146,3.97262 0.01564,1.30634 1.347146,3.6805 1.347146,3.6805 z"
       id="path2139"
       sodipodi:nodetypes="ccscczsscccccccccccsscscsccsscaccccccssssccssscccaaacacaccccccacasccscscsscccccccccccsssccscc" />
  </g>
</svg>
